<?xml version="1.0" standalone="no"?>
<!DOCTYPE svg PUBLIC "-//W3C//DTD SVG 20010904//EN"
 "http://www.w3.org/TR/2001/REC-SVG-20010904/DTD/svg10.dtd">
<svg version="1.0" xmlns="http://www.w3.org/2000/svg"
 width="3559.000000pt" height="3559.000000pt" viewBox="0 0 3559.000000 3559.000000"
 preserveAspectRatio="xMidYMid meet">
<metadata>
Created by potrace 1.14, written by Peter Selinger 2001-2017
</metadata>
<g transform="translate(0.000000,3559.000000) scale(0.100000,-0.100000)"
fill="#000000" stroke="none">
<path d="M15216 34803 c-3 -16 -8 -44 -10 -63 -3 -19 -8 -46 -11 -60 -2 -13
-7 -42 -10 -65 -3 -22 -8 -47 -10 -55 -2 -8 -6 -35 -9 -60 -3 -25 -8 -56 -11
-70 -2 -13 -7 -40 -10 -60 -3 -20 -7 -45 -9 -57 -6 -27 -16 -91 -21 -128 -3
-16 -7 -41 -10 -55 -3 -14 -8 -45 -11 -70 -3 -25 -8 -54 -10 -65 -11 -56 -16
-80 -28 -165 -3 -19 -8 -46 -11 -60 -3 -14 -7 -43 -10 -65 -3 -22 -7 -51 -10
-65 -3 -13 -7 -40 -10 -60 -3 -20 -7 -47 -10 -60 -3 -13 -7 -42 -10 -65 -3
-22 -8 -47 -10 -55 -2 -8 -7 -33 -10 -55 -3 -23 -7 -52 -10 -65 -3 -13 -7 -40
-10 -60 -3 -20 -7 -45 -9 -55 -2 -11 -7 -40 -11 -65 -9 -63 -14 -92 -19 -115
-5 -29 -17 -102 -21 -128 -4 -32 -14 -99 -20 -127 -3 -14 -7 -41 -10 -60 -3
-19 -7 -46 -10 -60 -3 -14 -7 -41 -10 -60 -3 -19 -7 -46 -10 -60 -2 -13 -7
-40 -10 -60 -3 -20 -7 -47 -10 -60 -3 -13 -7 -40 -10 -60 -3 -20 -7 -47 -10
-60 -3 -13 -7 -40 -10 -60 -3 -20 -7 -45 -9 -55 -2 -11 -7 -40 -10 -65 -3 -25
-8 -56 -11 -70 -2 -13 -7 -40 -10 -60 -3 -20 -7 -47 -10 -60 -3 -13 -7 -42
-10 -65 -3 -22 -8 -47 -10 -55 -2 -8 -7 -35 -10 -60 -3 -25 -8 -52 -10 -60 -2
-8 -7 -33 -10 -55 -3 -23 -7 -52 -10 -65 -3 -14 -7 -45 -10 -69 -3 -24 -7 -46
-9 -50 -2 -3 -7 -33 -11 -66 -3 -33 -10 -78 -15 -100 -5 -22 -11 -58 -14 -80
-6 -40 -11 -66 -21 -115 -3 -14 -8 -45 -11 -70 -3 -25 -7 -54 -9 -65 -2 -11
-6 -38 -10 -60 -10 -62 -14 -88 -20 -115 -3 -14 -7 -41 -10 -60 -3 -19 -7 -46
-10 -60 -3 -14 -7 -41 -10 -60 -8 -61 -16 -115 -20 -130 -2 -8 -7 -35 -10 -60
-3 -25 -8 -52 -10 -60 -2 -8 -7 -35 -11 -60 -3 -25 -7 -52 -9 -60 -1 -11 -14
-15 -41 -14 -45 2 -156 14 -164 19 -3 2 -34 6 -70 10 -36 4 -67 8 -70 10 -3 2
-30 6 -60 10 -52 6 -68 8 -137 19 -34 6 -94 14 -148 21 -22 3 -51 7 -65 10
-14 3 -42 7 -62 10 -71 9 -142 20 -208 30 -25 4 -56 9 -70 10 -14 2 -38 5 -55
8 -16 3 -50 9 -75 12 -25 3 -52 8 -60 10 -8 2 -35 6 -60 9 -25 3 -54 8 -65 10
-11 2 -40 7 -65 10 -25 3 -56 8 -70 11 -14 3 -43 7 -65 10 -22 2 -51 7 -65 10
-13 2 -40 7 -60 10 -20 3 -45 7 -56 9 -12 2 -45 7 -75 11 -33 4 -59 13 -67 23
-7 9 -16 16 -20 14 -6 -3 -53 2 -113 13 -13 3 -40 7 -59 9 -19 3 -46 8 -59 10
-12 3 -42 8 -65 10 -22 3 -52 8 -66 11 -13 2 -40 7 -60 10 -20 3 -47 7 -60 10
-13 3 -40 7 -60 10 -20 3 -47 7 -60 10 -24 5 -88 15 -125 20 -11 2 -35 6 -52
9 -18 3 -46 8 -63 11 -16 3 -43 7 -60 10 -16 3 -45 8 -62 11 -18 3 -44 7 -58
9 -49 7 -105 16 -130 20 -14 3 -40 7 -57 10 -56 9 -85 13 -183 30 -52 9 -106
18 -120 20 -14 2 -65 11 -115 19 -49 8 -106 17 -125 20 -19 3 -46 8 -60 11
-13 2 -42 7 -65 10 -22 4 -53 8 -70 11 -16 3 -43 7 -60 10 -16 2 -41 6 -55 9
-13 2 -40 7 -60 10 -20 3 -47 7 -60 10 -13 3 -40 7 -60 10 -20 3 -47 7 -60 10
-13 3 -40 7 -60 10 -20 3 -47 8 -60 10 -14 3 -41 7 -60 10 -19 3 -46 7 -60 10
-23 4 -83 14 -125 20 -11 2 -33 6 -50 9 -16 2 -50 8 -75 11 -25 3 -52 8 -60
10 -8 2 -33 7 -55 10 -23 3 -52 7 -65 10 -13 3 -42 7 -65 10 -22 3 -47 8 -55
10 -13 3 -60 11 -125 20 -11 1 -47 7 -80 14 -33 6 -78 13 -100 16 -45 7 -80
13 -110 19 -18 3 -37 6 -140 22 -40 6 -72 12 -115 19 -19 4 -46 8 -60 10 -14
2 -38 6 -55 9 -16 3 -45 8 -62 11 -18 3 -48 8 -65 11 -138 24 -175 26 -175 12
0 -12 -6 -50 -18 -119 -3 -14 -7 -41 -9 -60 -3 -19 -7 -43 -9 -54 -3 -11 -8
-40 -12 -65 -4 -25 -9 -52 -10 -60 -2 -14 -11 -69 -21 -132 -4 -31 -12 -78
-20 -123 -3 -16 -7 -41 -9 -55 -2 -14 -6 -41 -10 -60 -11 -66 -16 -95 -21
-123 -8 -55 -13 -83 -19 -117 -12 -71 -16 -96 -20 -120 -2 -14 -6 -41 -10 -60
-13 -75 -17 -96 -21 -129 -2 -19 -7 -48 -10 -65 -7 -42 -14 -87 -28 -171 -3
-16 -12 -70 -20 -120 -8 -49 -17 -106 -20 -125 -3 -19 -8 -46 -11 -60 -2 -14
-7 -41 -9 -60 -3 -19 -7 -45 -10 -56 -6 -30 -16 -91 -22 -139 -2 -22 -7 -47
-9 -55 -2 -8 -7 -33 -10 -55 -2 -22 -7 -51 -10 -65 -3 -14 -7 -41 -10 -60 -3
-19 -7 -46 -10 -60 -3 -14 -7 -41 -10 -60 -3 -19 -7 -46 -10 -60 -3 -14 -8
-43 -11 -65 -3 -22 -7 -49 -9 -60 -2 -11 -6 -36 -9 -55 -3 -19 -8 -46 -11 -60
-3 -14 -8 -45 -10 -70 -3 -25 -8 -52 -10 -60 -2 -8 -7 -35 -10 -60 -3 -25 -8
-52 -10 -60 -2 -8 -7 -35 -10 -60 -3 -25 -8 -52 -10 -60 -2 -8 -7 -35 -10 -60
-4 -24 -8 -47 -10 -50 -9 -15 14 -29 55 -35 25 -3 52 -8 60 -10 8 -2 40 -6 71
-10 31 -3 67 -8 80 -10 13 -3 42 -7 64 -10 22 -3 51 -7 65 -10 14 -3 42 -7 63
-10 20 -3 54 -7 75 -10 20 -3 48 -7 62 -10 14 -3 43 -7 65 -10 22 -2 49 -7 60
-9 11 -2 43 -7 70 -11 28 -4 59 -8 70 -10 11 -1 43 -6 70 -10 28 -4 59 -9 70
-11 11 -2 40 -7 65 -10 25 -3 54 -8 65 -10 10 -2 37 -6 60 -9 41 -6 74 -11
123 -20 15 -2 47 -7 72 -11 25 -3 54 -7 65 -9 51 -9 99 -17 118 -21 12 -2 39
-6 62 -9 22 -3 81 -13 130 -22 111 -19 120 -21 170 -28 22 -3 47 -7 55 -10 8
-2 31 -7 50 -10 19 -3 42 -8 50 -10 8 -2 29 -7 47 -10 18 -3 44 -10 59 -15 15
-6 42 -13 62 -16 19 -3 44 -8 56 -10 11 -3 32 -7 46 -10 14 -3 43 -10 65 -16
22 -5 51 -12 64 -15 13 -2 32 -8 43 -14 10 -5 18 -7 18 -4 0 3 8 1 18 -4 11
-6 30 -12 43 -15 70 -14 409 -169 409 -187 0 -5 5 -9 11 -9 19 0 151 -98 233
-173 86 -79 180 -194 246 -302 43 -69 108 -202 115 -234 2 -9 12 -36 21 -61 9
-25 18 -52 20 -60 2 -8 11 -44 19 -80 9 -36 19 -78 21 -95 3 -16 7 -41 9 -55
19 -114 24 -267 11 -335 -4 -22 -9 -55 -12 -74 -2 -19 -7 -48 -10 -65 -4 -17
-8 -40 -9 -51 -2 -11 -6 -36 -10 -55 -7 -38 -11 -64 -20 -125 -3 -22 -8 -51
-10 -65 -3 -14 -8 -41 -11 -60 -3 -19 -9 -60 -14 -90 -5 -30 -12 -71 -15 -90
-3 -19 -8 -47 -10 -62 -3 -16 -7 -40 -10 -55 -2 -16 -6 -41 -9 -58 -3 -16 -10
-59 -15 -95 -6 -36 -13 -74 -15 -85 -2 -11 -7 -40 -11 -65 -4 -25 -9 -52 -10
-60 -10 -55 -18 -109 -21 -135 -2 -16 -6 -41 -9 -55 -3 -14 -8 -45 -11 -70 -3
-25 -7 -52 -10 -61 -3 -9 -7 -32 -9 -50 -3 -19 -7 -45 -10 -59 -2 -13 -7 -42
-10 -65 -4 -22 -9 -53 -12 -70 -6 -36 -11 -60 -17 -100 -2 -16 -7 -43 -10 -60
-13 -74 -18 -102 -22 -134 -2 -19 -6 -47 -9 -63 -3 -15 -7 -41 -10 -58 -3 -16
-7 -43 -10 -60 -3 -16 -7 -42 -10 -57 -2 -16 -7 -43 -10 -60 -3 -18 -7 -45
-10 -60 -2 -16 -7 -44 -10 -63 -10 -57 -15 -88 -20 -122 -3 -18 -7 -44 -10
-58 -3 -14 -7 -41 -10 -60 -3 -19 -8 -47 -10 -61 -3 -15 -7 -44 -10 -65 -3
-22 -7 -50 -10 -64 -5 -24 -15 -85 -20 -125 -2 -11 -6 -35 -9 -52 -11 -62 -22
-131 -31 -188 -3 -23 -8 -52 -10 -65 -13 -65 -28 -154 -40 -234 -3 -22 -7 -51
-10 -65 -2 -14 -7 -43 -10 -65 -4 -21 -8 -46 -10 -55 -1 -9 -6 -36 -10 -61 -4
-25 -9 -54 -11 -65 -2 -11 -7 -40 -10 -65 -3 -25 -7 -47 -9 -50 -2 -3 -6 -29
-10 -59 -4 -30 -9 -63 -11 -75 -2 -12 -6 -34 -9 -51 -3 -16 -7 -41 -10 -55 -2
-14 -7 -43 -10 -65 -3 -23 -7 -52 -10 -65 -3 -13 -7 -40 -10 -60 -3 -20 -7
-47 -10 -60 -3 -13 -7 -40 -10 -60 -5 -34 -8 -53 -20 -110 -4 -22 -9 -55 -20
-135 -2 -11 -6 -35 -9 -52 -12 -65 -17 -98 -21 -123 -2 -14 -6 -38 -9 -55 -2
-16 -7 -48 -11 -70 -3 -23 -7 -52 -10 -65 -3 -13 -7 -42 -10 -65 -3 -22 -8
-47 -10 -55 -2 -8 -6 -32 -9 -52 -8 -53 -17 -107 -21 -128 -2 -10 -7 -40 -11
-67 -3 -26 -8 -57 -10 -68 -11 -54 -32 -183 -39 -230 -3 -23 -8 -52 -10 -65
-3 -14 -7 -41 -10 -60 -3 -19 -7 -46 -10 -60 -3 -14 -7 -41 -10 -60 -3 -19 -7
-46 -10 -60 -2 -13 -8 -42 -11 -65 -4 -22 -8 -49 -10 -60 -2 -11 -6 -38 -9
-59 -6 -42 -11 -75 -20 -116 -3 -14 -7 -41 -10 -60 -8 -61 -16 -115 -20 -130
-2 -8 -7 -35 -10 -60 -3 -25 -8 -52 -10 -60 -2 -8 -7 -33 -10 -55 -3 -23 -7
-52 -10 -65 -3 -13 -7 -42 -10 -65 -6 -42 -12 -77 -19 -110 -2 -11 -7 -40 -11
-65 -4 -25 -9 -54 -11 -65 -2 -10 -6 -35 -9 -55 -3 -20 -7 -45 -9 -55 -2 -11
-7 -40 -10 -65 -3 -25 -8 -56 -11 -70 -2 -13 -7 -40 -10 -60 -3 -20 -7 -47
-10 -60 -3 -13 -7 -40 -10 -60 -3 -20 -8 -47 -10 -60 -3 -14 -7 -43 -10 -65
-3 -22 -7 -51 -10 -65 -9 -43 -25 -135 -30 -170 -6 -42 -16 -102 -25 -160 -5
-30 -12 -68 -14 -85 -3 -16 -8 -46 -11 -65 -8 -47 -13 -78 -20 -120 -3 -19 -8
-46 -10 -60 -3 -14 -7 -41 -10 -60 -2 -19 -7 -46 -9 -60 -3 -13 -8 -42 -11
-65 -3 -22 -8 -47 -10 -55 -3 -8 -7 -35 -9 -60 -3 -25 -8 -56 -11 -70 -3 -14
-7 -41 -10 -60 -3 -19 -7 -46 -10 -60 -2 -13 -7 -40 -10 -60 -3 -20 -8 -47
-10 -60 -3 -14 -8 -43 -11 -65 -8 -54 -11 -74 -19 -115 -11 -61 -16 -94 -21
-123 -7 -51 -12 -82 -18 -112 -2 -16 -7 -48 -11 -70 -3 -23 -7 -50 -9 -62 -3
-11 -7 -37 -10 -57 -3 -20 -9 -52 -12 -72 -3 -20 -8 -46 -10 -58 -2 -11 -7
-41 -10 -66 -3 -25 -8 -54 -10 -65 -3 -11 -7 -35 -10 -54 -3 -18 -8 -43 -10
-55 -2 -11 -7 -41 -10 -66 -3 -25 -8 -54 -10 -65 -8 -40 -13 -71 -20 -115 -3
-25 -7 -54 -9 -65 -2 -11 -6 -36 -9 -55 -3 -19 -8 -46 -11 -60 -2 -13 -7 -40
-10 -60 -3 -20 -7 -47 -10 -60 -3 -13 -7 -40 -10 -60 -3 -20 -8 -47 -10 -60
-3 -14 -7 -41 -10 -60 -3 -19 -7 -46 -10 -60 -2 -13 -7 -40 -10 -60 -3 -20 -7
-47 -10 -60 -3 -13 -7 -42 -10 -65 -6 -41 -11 -72 -20 -127 -6 -35 -10 -61
-20 -118 -3 -19 -10 -60 -15 -90 -5 -30 -11 -71 -14 -90 -3 -19 -8 -48 -11
-65 -9 -49 -24 -137 -30 -180 -3 -22 -7 -47 -10 -55 -2 -8 -6 -35 -9 -60 -3
-25 -8 -56 -11 -70 -3 -14 -7 -41 -10 -60 -3 -19 -7 -46 -10 -60 -3 -14 -7
-41 -10 -60 -3 -19 -7 -46 -10 -60 -3 -14 -7 -41 -10 -60 -3 -19 -7 -46 -10
-60 -3 -14 -8 -43 -11 -65 -3 -22 -7 -49 -9 -60 -8 -42 -14 -81 -20 -119 -8
-56 -15 -99 -20 -116 -2 -8 -7 -40 -10 -70 -4 -30 -8 -57 -10 -60 -2 -3 -6
-27 -9 -55 -4 -27 -9 -57 -11 -65 -2 -8 -6 -33 -10 -55 -3 -22 -8 -52 -10 -66
-3 -14 -7 -43 -10 -63 -2 -21 -6 -46 -9 -55 -3 -9 -7 -38 -11 -65 -3 -27 -8
-52 -10 -55 -2 -3 -6 -28 -9 -56 -3 -27 -8 -61 -11 -75 -2 -13 -7 -40 -10 -60
-3 -20 -8 -47 -10 -60 -3 -14 -7 -41 -10 -60 -3 -19 -7 -45 -9 -56 -2 -12 -7
-39 -11 -60 -10 -56 -10 -58 -16 -69 -4 -5 -12 -28 -19 -50 -16 -49 -97 -216
-132 -270 -46 -73 -149 -194 -196 -232 -26 -21 -49 -41 -52 -44 -13 -14 -102
-71 -156 -97 -53 -27 -159 -67 -206 -78 -10 -2 -26 -6 -36 -8 -89 -20 -307
-27 -427 -13 -33 3 -91 9 -130 12 -38 4 -77 8 -85 10 -8 2 -37 7 -65 11 -27 3
-59 8 -70 9 -11 2 -38 7 -59 10 -22 3 -52 7 -68 10 -35 6 -78 13 -120 20 -18
3 -58 10 -88 15 -30 5 -73 12 -95 15 -22 4 -51 8 -65 11 -39 6 -132 23 -165
29 -16 3 -46 8 -65 10 -19 3 -46 7 -60 10 -32 7 -54 11 -115 20 -27 5 -52 9
-55 10 -3 0 -27 5 -55 10 -27 5 -52 9 -55 10 -3 0 -27 4 -53 9 -27 4 -59 9
-70 12 -35 7 -72 13 -169 29 -18 3 -40 8 -48 10 -8 2 -35 7 -60 10 -25 3 -52
8 -60 10 -8 2 -30 7 -47 10 -47 7 -87 14 -178 31 -132 25 -185 28 -186 13 0
-13 -4 -32 -12 -62 -2 -6 -8 -30 -12 -52 -5 -22 -10 -42 -10 -45 -1 -3 -6 -23
-13 -45 -6 -22 -13 -51 -16 -65 -3 -14 -7 -34 -10 -45 -9 -37 -57 -240 -62
-262 -2 -12 -9 -34 -14 -48 -5 -14 -7 -25 -5 -25 2 0 0 -11 -5 -25 -5 -14 -12
-36 -14 -48 -2 -12 -14 -62 -26 -112 -26 -108 -29 -119 -35 -145 -3 -11 -7
-29 -10 -41 -2 -11 -6 -28 -9 -37 -3 -9 -8 -28 -10 -42 -3 -14 -10 -45 -17
-70 -6 -25 -12 -53 -14 -63 -2 -10 -7 -27 -10 -37 -3 -10 -8 -28 -10 -39 -10
-42 -13 -57 -29 -119 -9 -34 -21 -82 -26 -105 -5 -23 -14 -62 -20 -87 -7 -25
-14 -54 -16 -65 -2 -11 -6 -29 -8 -40 -2 -11 -12 -49 -21 -85 -9 -36 -19 -73
-21 -83 -2 -10 -6 -27 -9 -37 -3 -10 -8 -27 -10 -37 -2 -10 -8 -38 -14 -63
-14 -54 -19 -78 -25 -105 -2 -11 -9 -40 -16 -65 -7 -25 -14 -56 -17 -70 -2
-14 -13 -56 -23 -95 -10 -38 -21 -81 -24 -95 -3 -14 -7 -35 -10 -48 -4 -12 -8
-32 -12 -45 -6 -26 -12 -54 -18 -84 -5 -22 -29 -116 -47 -183 -5 -19 -23 -93
-40 -165 -31 -134 -35 -151 -44 -185 -8 -34 -39 -162 -51 -212 -2 -10 -6 -27
-9 -38 -22 -90 -36 -153 -33 -156 4 -3 36 -9 103 -19 23 -3 50 -7 60 -9 11 -2
40 -7 65 -11 25 -4 54 -9 65 -11 10 -2 35 -6 55 -9 20 -3 47 -7 60 -10 13 -3
40 -7 60 -10 20 -3 45 -7 55 -9 11 -2 40 -7 65 -10 25 -3 55 -8 66 -10 25 -5
90 -16 119 -20 45 -7 102 -17 125 -21 13 -3 42 -7 65 -10 53 -8 88 -14 155
-25 30 -5 71 -12 90 -15 19 -3 47 -8 63 -10 15 -3 39 -7 55 -10 15 -2 41 -6
58 -9 17 -3 47 -8 67 -11 70 -10 102 -15 127 -20 14 -3 41 -7 60 -10 19 -3 46
-7 60 -10 13 -2 42 -8 65 -11 22 -4 49 -8 60 -10 11 -2 38 -6 60 -9 22 -3 65
-10 95 -15 59 -10 122 -21 155 -25 11 -1 47 -7 80 -13 65 -12 98 -18 160 -27
23 -3 52 -7 65 -10 30 -6 73 -13 120 -20 19 -2 46 -7 60 -10 14 -3 43 -8 65
-11 22 -3 49 -7 60 -9 30 -5 96 -16 130 -21 17 -3 55 -9 85 -14 30 -5 70 -12
88 -15 17 -3 47 -7 65 -10 17 -3 57 -10 87 -15 56 -9 112 -18 165 -25 17 -3
41 -7 55 -10 13 -2 40 -7 60 -10 20 -3 47 -8 60 -10 14 -3 43 -8 65 -11 53 -8
74 -11 110 -18 60 -10 100 -17 125 -21 31 -4 95 -15 123 -21 12 -2 37 -6 57
-9 20 -3 47 -7 60 -10 36 -7 129 -23 170 -30 41 -7 134 -23 170 -30 13 -3 40
-7 60 -10 20 -3 47 -7 60 -10 13 -3 40 -7 60 -10 20 -3 47 -8 60 -10 39 -8 72
-14 114 -20 21 -4 48 -9 60 -11 11 -2 37 -7 56 -10 19 -2 49 -8 65 -11 17 -3
39 -7 50 -9 11 -2 85 -15 165 -29 80 -14 159 -28 175 -30 17 -3 41 -7 55 -10
30 -6 180 -32 234 -41 21 -3 46 -7 55 -9 9 -1 35 -6 58 -10 25 -4 40 -11 38
-18 -2 -7 -7 -30 -11 -52 -3 -22 -8 -49 -9 -60 -2 -11 -6 -36 -9 -55 -3 -19
-8 -46 -11 -60 -2 -13 -7 -42 -10 -65 -4 -22 -8 -52 -11 -67 -2 -16 -6 -43 -9
-60 -3 -18 -7 -44 -10 -58 -3 -14 -7 -40 -10 -57 -3 -18 -7 -46 -10 -61 -3
-16 -7 -44 -9 -63 -3 -19 -8 -45 -10 -59 -3 -13 -8 -40 -11 -60 -3 -20 -7 -47
-10 -60 -3 -14 -7 -43 -10 -65 -3 -22 -7 -51 -10 -65 -5 -24 -15 -85 -20 -125
-2 -11 -6 -36 -10 -55 -3 -19 -8 -47 -10 -62 -3 -16 -8 -43 -11 -60 -5 -33 -8
-51 -18 -118 -3 -19 -8 -46 -11 -60 -2 -13 -7 -42 -10 -65 -3 -22 -10 -65 -15
-95 -5 -30 -12 -72 -16 -94 -3 -21 -7 -46 -9 -55 -1 -9 -6 -36 -10 -61 -9 -63
-14 -92 -19 -115 -2 -11 -7 -40 -11 -65 -4 -25 -9 -52 -10 -60 -3 -15 -13 -83
-20 -130 -2 -14 -7 -41 -10 -60 -4 -19 -8 -46 -10 -60 -2 -14 -6 -40 -9 -57
-3 -18 -8 -45 -11 -60 -5 -36 -13 -79 -20 -120 -6 -42 -14 -85 -20 -120 -2
-16 -7 -43 -10 -60 -9 -56 -14 -87 -20 -128 -3 -23 -7 -52 -10 -65 -3 -13 -7
-40 -10 -60 -3 -20 -7 -47 -10 -60 -3 -13 -7 -40 -10 -60 -3 -20 -7 -47 -10
-60 -5 -24 -15 -87 -20 -125 -1 -11 -7 -47 -13 -80 -11 -57 -18 -105 -27 -170
-3 -16 -7 -41 -10 -55 -2 -13 -7 -40 -10 -60 -3 -20 -8 -47 -10 -60 -3 -14 -8
-43 -11 -65 -3 -22 -7 -49 -9 -60 -2 -11 -6 -36 -9 -55 -3 -19 -8 -46 -11 -60
-3 -14 -7 -42 -10 -64 -3 -21 -7 -50 -10 -65 -2 -14 -7 -42 -10 -61 -3 -19 -7
-46 -10 -60 -3 -14 -7 -41 -10 -60 -3 -19 -7 -46 -10 -60 -3 -14 -7 -38 -9
-55 -3 -16 -8 -45 -11 -62 -3 -18 -7 -46 -10 -63 -3 -16 -7 -43 -10 -60 -9
-55 -14 -85 -20 -125 -3 -23 -8 -52 -10 -65 -3 -14 -8 -49 -11 -77 -6 -51 -5
-53 17 -54 13 0 33 -2 44 -4 11 -3 38 -7 60 -9 22 -3 51 -8 65 -11 13 -2 40
-7 60 -10 20 -3 47 -7 60 -10 13 -3 40 -7 60 -10 20 -3 47 -8 60 -10 14 -3 41
-7 60 -10 19 -3 46 -7 60 -9 14 -3 41 -7 60 -10 19 -3 46 -8 60 -11 14 -3 41
-7 60 -10 19 -3 46 -7 60 -10 14 -3 45 -8 70 -10 25 -3 52 -8 60 -10 8 -2 33
-7 55 -10 23 -3 52 -7 65 -10 13 -3 40 -7 60 -10 20 -3 45 -7 55 -9 11 -2 40
-7 65 -11 25 -4 54 -9 65 -11 10 -2 35 -6 55 -9 20 -3 45 -7 55 -9 11 -2 40
-7 65 -11 63 -9 92 -14 115 -19 18 -3 56 -9 138 -22 26 -4 49 -8 115 -19 17
-3 44 -7 60 -10 66 -11 89 -14 122 -20 19 -4 49 -8 65 -11 17 -2 41 -6 55 -9
14 -3 41 -7 60 -10 19 -3 45 -7 56 -9 12 -2 39 -7 60 -11 22 -3 53 -8 69 -11
17 -3 44 -7 60 -9 17 -1 57 -8 90 -14 33 -6 77 -13 99 -17 21 -3 48 -7 59 -10
12 -2 37 -6 57 -9 20 -3 47 -8 60 -10 14 -3 45 -8 70 -11 25 -3 54 -8 65 -10
71 -15 102 -16 102 -3 0 8 3 28 7 44 3 17 8 47 11 69 4 21 9 48 11 60 2 11 6
39 9 61 3 22 7 49 9 60 2 11 7 40 11 65 4 25 9 54 11 65 2 10 6 35 9 55 3 20
8 47 10 60 3 14 7 41 10 60 3 19 7 46 10 60 2 13 7 40 10 60 3 20 7 45 9 55 3
18 10 62 22 138 2 15 7 42 10 60 3 17 7 46 10 62 2 17 6 41 9 55 2 13 7 40 10
60 3 20 8 47 10 60 3 14 8 43 11 65 3 22 7 49 9 60 2 11 6 36 9 55 3 19 8 46
11 60 3 14 7 43 10 65 3 22 7 51 10 65 3 13 7 42 10 65 3 22 8 47 10 55 2 8 7
35 10 60 3 25 8 52 10 60 2 8 7 33 10 55 3 23 7 52 10 65 3 13 7 42 10 65 3
22 8 47 10 55 2 8 7 35 10 60 6 44 10 70 20 130 3 17 7 42 10 58 2 15 6 41 9
57 3 17 7 44 10 60 3 17 8 46 11 65 11 64 15 90 19 118 13 81 19 119 22 137 7
36 13 69 19 115 3 25 8 52 10 60 2 8 7 33 10 55 3 23 7 52 10 65 3 13 7 40 10
60 3 20 7 45 9 57 3 11 7 38 11 59 7 49 13 84 25 154 11 67 17 102 25 155 3
23 7 52 10 65 3 13 7 40 10 60 3 20 7 47 10 60 3 13 7 40 10 60 3 20 7 47 10
60 3 13 8 42 11 65 4 22 8 49 10 60 2 11 6 38 9 60 3 22 8 51 10 65 5 23 10
54 21 125 3 17 9 55 14 85 5 30 12 71 15 90 3 19 7 46 10 60 2 14 7 41 9 60 3
19 8 46 11 60 2 13 7 42 11 65 3 22 7 47 9 55 2 8 6 40 10 70 4 30 9 58 11 61
2 3 41 -2 86 -11 46 -10 105 -21 132 -24 27 -4 52 -9 56 -11 5 -3 29 -7 115
-21 11 -1 45 -7 75 -13 81 -15 106 -20 200 -37 47 -8 96 -17 110 -20 14 -2 39
-7 55 -9 17 -3 41 -7 55 -10 13 -2 42 -7 64 -11 22 -3 43 -7 46 -9 3 -2 30 -6
60 -10 30 -4 57 -8 60 -10 3 -2 24 -6 46 -9 22 -4 51 -8 64 -11 13 -3 40 -7
60 -10 20 -3 47 -8 60 -10 14 -3 39 -7 55 -10 17 -2 41 -7 55 -9 13 -3 40 -8
60 -11 20 -3 45 -7 55 -9 11 -2 40 -7 65 -11 25 -4 54 -9 65 -12 11 -2 31 -5
45 -8 41 -6 101 -16 123 -21 12 -2 39 -6 62 -9 45 -7 79 -13 115 -20 13 -2 40
-7 60 -10 34 -5 46 -7 110 -19 14 -3 43 -8 65 -11 22 -3 56 -9 75 -12 19 -3
41 -5 48 -6 12 0 11 -40 -3 -107 -3 -14 -7 -42 -10 -64 -3 -21 -7 -51 -10 -67
-3 -16 -7 -44 -10 -61 -3 -18 -7 -44 -10 -58 -3 -14 -7 -41 -10 -60 -3 -19 -7
-46 -10 -60 -3 -14 -7 -41 -10 -60 -3 -19 -7 -46 -10 -60 -3 -14 -7 -41 -10
-60 -3 -19 -7 -46 -10 -60 -3 -14 -7 -38 -9 -55 -3 -16 -7 -43 -10 -60 -10
-60 -15 -91 -21 -130 -3 -23 -7 -52 -10 -65 -3 -13 -7 -40 -10 -60 -3 -20 -7
-47 -10 -60 -3 -13 -7 -40 -10 -60 -3 -20 -8 -47 -10 -60 -3 -14 -7 -41 -10
-60 -3 -19 -7 -46 -10 -60 -3 -14 -7 -41 -10 -60 -3 -19 -7 -46 -10 -60 -2
-13 -7 -40 -10 -60 -3 -20 -7 -47 -10 -60 -3 -13 -7 -42 -10 -65 -8 -56 -18
-115 -35 -215 -5 -30 -12 -68 -14 -85 -5 -31 -14 -81 -21 -126 -3 -14 -7 -41
-9 -60 -3 -19 -7 -43 -9 -54 -6 -25 -18 -97 -22 -128 -1 -12 -6 -38 -10 -57
-3 -19 -8 -51 -10 -70 -3 -19 -7 -46 -10 -60 -3 -14 -7 -41 -10 -60 -3 -19 -7
-46 -10 -60 -2 -13 -7 -40 -10 -60 -3 -20 -8 -47 -10 -60 -3 -14 -7 -43 -10
-65 -3 -22 -7 -51 -10 -65 -8 -40 -24 -131 -31 -173 -7 -51 -12 -82 -18 -112
-2 -16 -7 -48 -11 -70 -3 -23 -7 -50 -9 -60 -2 -11 -7 -40 -11 -65 -4 -25 -9
-54 -11 -65 -2 -10 -6 -35 -9 -55 -3 -20 -7 -47 -10 -60 -3 -13 -7 -42 -10
-65 -3 -22 -8 -47 -10 -55 -2 -8 -6 -32 -9 -52 -18 -119 -23 -147 -31 -188 -3
-14 -7 -43 -10 -65 -3 -22 -7 -51 -10 -65 -2 -13 -7 -40 -10 -60 -3 -20 -7
-47 -10 -60 -3 -13 -8 -42 -11 -65 -4 -22 -8 -49 -10 -60 -2 -11 -5 -33 -8
-50 -2 -16 -7 -46 -11 -65 -15 -86 -17 -97 -29 -180 -3 -19 -8 -46 -11 -60 -3
-14 -8 -45 -11 -69 -3 -25 -7 -48 -10 -52 -5 -8 14 -22 33 -25 6 -1 29 -5 50
-8 21 -3 49 -8 63 -11 13 -2 40 -7 60 -10 20 -3 45 -7 55 -9 19 -3 75 -12 135
-21 14 -2 41 -7 60 -10 19 -4 49 -8 65 -11 17 -2 41 -6 55 -9 13 -2 40 -7 60
-10 20 -3 47 -7 60 -10 13 -3 40 -7 60 -10 20 -3 47 -7 60 -10 13 -3 42 -7 65
-10 37 -5 50 -8 115 -20 14 -3 43 -7 65 -10 22 -3 51 -7 65 -10 13 -3 40 -7
60 -10 20 -3 47 -7 60 -10 13 -3 40 -7 60 -10 20 -3 47 -7 60 -10 13 -3 40 -7
60 -10 20 -3 47 -7 60 -10 13 -3 42 -7 65 -10 45 -7 79 -13 115 -20 13 -2 42
-7 65 -10 22 -4 54 -8 70 -11 17 -3 44 -7 60 -10 17 -2 41 -6 55 -9 61 -12 77
-15 115 -20 23 -3 52 -7 65 -10 13 -3 42 -8 65 -11 22 -4 49 -8 60 -10 11 -2
34 -5 50 -8 17 -2 45 -7 63 -10 42 -8 91 -16 122 -21 60 -9 116 -18 135 -21
10 -2 35 -6 55 -9 20 -3 45 -7 55 -9 19 -3 67 -11 140 -22 17 -3 37 -7 45 -9
8 -2 33 -6 55 -10 22 -3 54 -8 71 -11 31 -6 32 -5 38 41 4 26 9 56 11 67 3 11
7 39 9 62 3 22 8 52 11 66 3 14 7 41 10 60 3 19 7 46 10 60 2 13 7 40 10 60 3
20 8 47 10 60 3 14 7 43 10 65 3 22 8 51 10 65 3 14 8 37 10 53 3 15 7 39 9
55 3 15 7 43 10 62 3 19 8 46 11 60 3 14 8 45 10 70 3 25 8 52 10 60 2 8 7 38
11 65 3 28 7 52 9 55 2 3 6 30 10 60 4 30 8 57 10 60 2 3 6 30 10 60 4 30 8
57 10 60 2 3 6 29 10 59 4 30 9 63 11 75 10 51 23 127 29 172 3 22 7 50 10 64
2 13 7 40 10 60 3 20 7 47 10 60 3 13 7 40 10 60 3 20 7 47 10 60 3 13 7 40
10 60 3 20 8 47 10 60 3 14 8 43 11 65 8 54 11 74 19 115 11 62 21 128 30 185
3 23 7 52 10 65 3 13 7 40 10 60 3 20 7 47 10 60 4 22 10 60 21 130 2 14 6 36
8 50 3 13 8 42 11 65 3 22 8 47 10 55 2 8 7 35 10 60 3 25 8 52 10 60 3 8 7
35 9 60 3 25 8 56 11 70 2 13 7 40 10 60 3 20 8 47 10 60 3 14 7 41 10 60 3
19 7 46 10 60 2 13 7 40 10 60 3 20 8 47 10 60 3 14 8 43 11 65 3 22 7 49 9
60 2 11 6 36 9 55 3 19 8 46 11 60 3 14 7 42 10 64 3 21 7 50 10 65 5 32 12
75 20 121 3 19 10 60 15 90 5 30 12 73 15 95 4 22 8 47 10 55 2 8 7 38 11 65
3 28 8 59 10 70 4 21 12 63 19 106 3 15 7 44 10 65 3 22 7 50 10 64 2 13 7 40
10 60 3 20 7 47 10 60 8 41 18 104 18 118 0 11 15 12 66 7 101 -11 111 -12
186 -19 39 -4 86 -9 105 -11 19 -2 71 -7 115 -10 44 -4 94 -9 110 -10 91 -10
462 -39 640 -50 50 -3 119 -8 155 -10 659 -43 1564 -51 2150 -20 149 8 269 15
325 21 33 3 89 7 125 10 36 2 88 7 115 10 28 3 70 7 95 9 25 2 63 7 85 10 22
2 65 7 95 10 57 6 74 8 148 19 45 6 93 13 157 21 22 3 49 7 61 9 12 2 45 7 75
11 30 4 57 9 60 11 3 2 25 6 49 9 43 5 76 11 120 20 14 3 40 8 59 11 18 3 43
8 55 10 11 2 32 6 46 9 41 8 62 12 135 30 39 9 86 18 105 21 19 3 38 8 43 11
4 2 17 6 30 9 53 10 76 15 237 59 52 14 102 28 110 30 8 2 15 4 15 5 0 1 8 3
18 6 34 8 43 11 102 28 33 9 67 20 75 23 8 3 20 7 25 8 19 5 200 66 255 87
103 39 185 70 205 78 11 5 61 25 110 45 159 65 496 227 598 289 32 19 61 35
65 35 4 1 15 8 25 16 9 8 20 15 24 15 10 0 199 118 318 198 468 318 866 688
1216 1133 79 99 124 159 149 195 73 104 220 325 234 349 9 17 22 39 29 49 29
47 74 123 87 151 8 17 18 32 22 35 16 13 244 473 311 631 80 185 134 318 147
359 5 14 27 77 50 140 48 135 77 221 115 345 15 50 33 107 41 128 8 20 12 37
9 37 -2 0 3 16 11 35 8 19 12 35 9 35 -2 0 0 12 6 28 6 15 12 34 14 42 2 8 13
51 25 95 12 44 24 88 26 97 2 10 6 26 8 35 2 10 13 54 25 98 11 44 22 91 25
105 4 22 15 72 32 145 3 11 7 34 10 50 3 17 9 46 14 65 5 19 12 52 16 74 3 21
8 48 10 60 2 11 6 33 9 49 3 15 7 39 10 55 3 15 7 38 10 52 2 13 7 40 10 60 3
20 7 45 9 55 2 11 7 43 10 70 8 57 16 108 21 137 2 11 7 49 11 86 8 87 11 106
18 172 23 196 30 353 31 695 0 377 -8 527 -40 770 -3 22 -8 56 -10 75 -3 19
-7 46 -10 60 -3 14 -7 39 -9 55 -8 51 -46 240 -71 348 -44 191 -141 482 -230
692 -59 140 -206 435 -217 435 -4 0 -8 5 -8 10 0 6 -25 52 -56 103 -30 50 -61
101 -67 112 -7 11 -15 22 -18 25 -3 3 -31 44 -63 92 -32 47 -65 94 -75 105 -9
10 -27 34 -41 53 -13 19 -27 37 -30 40 -3 3 -13 14 -21 26 -17 25 -77 98 -174
209 -102 117 -332 343 -470 461 -187 160 -507 403 -583 443 -15 8 -29 17 -32
21 -8 11 -120 80 -129 80 -5 0 -11 4 -13 8 -4 12 -340 212 -443 264 -16 8
-109 55 -205 104 -256 131 -575 276 -584 266 -3 -3 -6 -1 -6 5 0 6 24 18 53
27 28 10 84 29 122 42 75 28 100 36 100 34 0 -1 242 98 280 114 17 8 53 24 80
36 243 107 589 303 811 459 129 91 326 250 428 344 130 120 342 339 398 412
12 17 35 44 50 60 16 17 31 38 34 48 3 9 9 17 13 17 5 0 21 19 37 43 16 23 32
44 35 47 27 22 260 385 304 475 11 22 23 42 26 45 6 5 160 320 179 365 4 11
15 36 23 55 25 56 79 194 83 210 2 8 17 53 35 100 17 47 32 90 33 95 2 6 15
50 30 98 15 48 30 100 32 114 3 15 7 30 10 35 3 4 7 16 9 25 3 10 16 65 31
123 36 147 41 168 49 210 3 14 7 36 10 50 3 14 8 38 11 54 2 16 6 32 8 35 2 3
7 26 10 51 3 25 8 56 11 70 2 13 7 42 10 65 3 22 8 47 10 55 3 8 7 38 10 65 3
28 7 59 9 70 4 21 16 118 21 170 2 17 7 62 10 100 4 39 9 84 10 100 15 143 20
300 20 595 0 299 -4 417 -19 555 -15 135 -27 232 -32 260 -2 11 -6 36 -9 55
-3 19 -7 46 -10 60 -6 27 -12 59 -25 130 -12 64 -20 102 -26 122 -3 9 -7 26
-9 37 -3 12 -7 30 -9 41 -21 95 -114 402 -143 470 -3 8 -7 20 -9 25 -1 6 -23
62 -49 125 -89 222 -255 542 -375 725 -22 33 -43 67 -47 75 -3 8 -9 17 -12 20
-3 3 -20 25 -36 50 -72 108 -255 343 -339 435 -20 22 -64 71 -98 108 -83 92
-346 349 -415 407 -276 232 -231 196 -390 314 -70 53 -132 99 -138 104 -41 32
-148 102 -155 102 -4 0 -10 4 -12 8 -4 11 -97 72 -109 72 -5 0 -9 3 -9 8 0 4
-17 16 -37 27 -21 11 -40 22 -43 26 -12 13 -211 131 -405 239 -174 98 -578
302 -715 363 -19 8 -60 26 -90 40 -59 27 -134 59 -190 83 -19 9 -44 19 -55 24
-96 42 -448 182 -465 185 -3 1 -16 7 -30 13 -86 39 -947 332 -1020 347 -3 1
-39 12 -80 24 -41 13 -82 25 -90 26 -8 2 -15 4 -15 5 0 1 -7 3 -15 5 -8 2 -55
16 -105 31 -49 14 -94 27 -100 28 -5 1 -37 10 -70 20 -33 10 -67 20 -75 22 -8
2 -58 15 -110 29 -52 14 -102 27 -110 30 -8 2 -42 11 -75 20 -33 9 -69 18 -80
21 -11 3 -24 6 -30 8 -45 11 -53 18 -49 39 3 12 7 36 9 52 3 17 7 41 10 55 2
13 7 40 10 60 3 20 7 47 10 60 3 13 7 40 10 60 3 20 7 47 10 60 3 13 7 40 10
60 3 20 7 47 10 60 3 13 7 40 10 60 3 20 8 47 10 60 3 14 7 41 10 60 3 19 7
46 10 60 2 13 7 42 10 65 7 44 12 80 29 180 3 17 8 46 11 65 3 19 10 60 15 90
5 30 12 71 15 90 3 19 10 60 15 90 5 30 12 73 15 95 4 22 8 51 11 65 15 87 34
200 38 230 3 19 7 44 10 55 2 11 7 42 10 68 4 27 9 59 12 70 2 12 6 38 9 57 3
19 7 46 10 60 2 13 7 42 10 65 3 22 8 47 10 55 3 8 7 33 10 55 2 22 7 51 10
65 2 13 7 40 10 60 3 20 7 47 10 60 3 13 7 40 10 60 3 20 7 47 10 60 3 13 7
40 10 60 3 20 7 45 9 56 2 12 7 45 11 75 4 30 8 56 10 59 2 3 6 26 9 50 4 25
9 56 11 70 3 14 7 41 10 60 3 19 7 46 10 60 3 14 7 41 10 60 3 19 7 46 10 60
3 14 7 39 9 55 3 17 7 44 10 61 3 17 8 46 10 65 3 19 7 46 10 59 3 14 8 41 11
60 2 19 7 46 10 60 2 13 7 42 10 65 3 22 8 47 10 55 3 13 8 45 20 137 2 12 6
34 9 50 3 15 8 43 11 61 7 42 14 84 21 125 3 17 7 46 10 62 2 17 6 41 9 55 2
13 7 42 10 65 4 22 9 54 12 70 6 36 11 60 17 100 2 17 7 44 10 60 25 143 38
228 40 274 1 27 -3 35 -19 37 -11 1 -40 6 -65 10 -25 4 -52 9 -60 10 -8 2 -28
5 -45 8 -16 2 -43 7 -60 10 -16 2 -48 7 -70 11 -23 3 -52 7 -65 10 -13 3 -40
7 -60 10 -20 3 -47 7 -60 10 -13 3 -42 7 -65 10 -22 3 -47 8 -55 10 -8 2 -33
7 -55 10 -23 3 -52 7 -65 10 -13 3 -40 7 -60 10 -20 3 -47 7 -60 10 -26 5 -77
13 -131 20 -19 3 -45 7 -59 10 -61 12 -77 15 -115 20 -23 3 -52 8 -65 10 -14
3 -45 8 -70 10 -25 3 -52 8 -60 10 -8 2 -28 6 -45 9 -49 8 -93 16 -127 22 -18
3 -44 7 -58 9 -42 6 -102 16 -160 25 -93 16 -114 19 -154 25 -21 4 -48 9 -60
11 -11 2 -41 7 -66 10 -25 3 -54 8 -65 10 -28 6 -64 12 -105 19 -19 3 -46 7
-60 10 -28 5 -65 11 -125 20 -23 3 -52 7 -65 10 -13 3 -40 7 -60 10 -20 3 -47
7 -60 10 -13 3 -40 7 -60 10 -20 3 -47 8 -60 10 -14 3 -45 8 -70 11 -25 3 -52
7 -60 9 -16 5 -69 14 -110 20 -14 2 -42 6 -62 10 -21 3 -38 3 -39 -2 0 -4 -2
-15 -4 -23 -1 -8 -6 -33 -9 -55 -4 -22 -13 -78 -21 -125 -8 -47 -17 -103 -20
-125 -4 -22 -8 -51 -11 -65 -2 -14 -7 -41 -10 -60 -3 -19 -8 -48 -10 -65 -3
-16 -7 -43 -10 -60 -2 -16 -6 -41 -9 -55 -2 -13 -7 -40 -10 -60 -3 -20 -7 -47
-10 -60 -3 -13 -7 -40 -10 -60 -3 -20 -7 -47 -10 -60 -3 -13 -7 -40 -10 -60
-3 -20 -8 -47 -10 -60 -3 -14 -7 -43 -10 -65 -3 -22 -7 -51 -10 -65 -3 -14 -8
-40 -11 -59 -3 -18 -8 -43 -10 -55 -2 -11 -7 -41 -9 -66 -3 -25 -8 -52 -10
-60 -2 -8 -7 -35 -10 -60 -3 -25 -8 -52 -10 -60 -2 -8 -7 -33 -10 -55 -3 -23
-7 -52 -10 -65 -3 -13 -7 -40 -10 -60 -3 -20 -7 -45 -9 -57 -3 -12 -8 -43 -12
-70 -3 -26 -8 -57 -10 -68 -2 -11 -6 -33 -9 -50 -3 -16 -7 -41 -10 -55 -3 -14
-7 -41 -10 -60 -3 -19 -7 -46 -10 -60 -2 -14 -7 -43 -10 -65 -3 -23 -7 -52
-10 -65 -3 -13 -7 -40 -10 -60 -3 -20 -7 -47 -10 -60 -3 -13 -7 -40 -10 -60
-3 -20 -8 -47 -10 -60 -3 -14 -8 -45 -10 -70 -3 -25 -8 -52 -10 -60 -3 -8 -7
-32 -11 -54 -3 -21 -7 -48 -10 -59 -2 -12 -6 -37 -9 -57 -3 -20 -7 -47 -10
-60 -3 -13 -7 -40 -10 -60 -3 -20 -7 -47 -10 -60 -3 -13 -7 -42 -10 -65 -4
-22 -8 -53 -11 -70 -3 -16 -7 -43 -10 -60 -2 -16 -6 -41 -9 -55 -3 -14 -7 -41
-10 -60 -6 -36 -11 -66 -20 -122 -3 -18 -8 -45 -10 -60 -3 -16 -7 -41 -10 -56
-3 -16 -7 -44 -9 -63 -3 -19 -7 -44 -10 -55 -2 -12 -7 -39 -10 -60 -4 -22 -13
-77 -21 -124 -14 -86 -23 -140 -30 -195 -3 -16 -7 -41 -10 -55 -2 -13 -7 -40
-10 -60 -3 -20 -8 -47 -10 -60 -3 -14 -7 -41 -10 -60 -3 -19 -7 -46 -10 -60
-3 -14 -7 -41 -10 -60 -3 -19 -7 -46 -10 -60 -3 -14 -7 -41 -10 -60 -11 -74
-11 -75 -36 -74 -25 1 -100 11 -135 18 -12 2 -39 7 -60 10 -22 3 -50 8 -64 11
-24 4 -71 11 -135 20 -16 3 -41 7 -55 10 -14 3 -45 8 -70 10 -25 3 -52 8 -60
10 -8 2 -35 7 -60 10 -25 2 -56 7 -70 10 -13 2 -42 7 -65 10 -22 3 -51 8 -65
10 -14 3 -43 7 -65 10 -22 2 -49 7 -61 9 -12 2 -45 7 -74 11 -29 4 -62 9 -74
11 -12 2 -41 7 -66 10 -25 3 -58 8 -75 11 -16 3 -41 7 -55 8 -23 3 -56 8 -140
20 -20 3 -45 7 -55 9 -18 3 -84 13 -140 20 -61 8 -132 19 -150 22 -10 2 -37 6
-60 9 -22 4 -51 8 -65 10 -14 2 -45 7 -70 10 -25 3 -56 7 -70 10 -14 2 -45 7
-70 10 -25 3 -56 8 -70 10 -14 3 -43 7 -65 10 -65 7 -119 17 -128 22 -4 2 -5
17 -2 34 3 16 8 44 11 62 3 17 7 44 10 60 2 15 6 39 8 55 3 15 7 43 10 62 3
19 8 46 11 60 3 14 7 41 10 60 3 19 7 44 9 55 2 11 7 40 10 65 3 25 8 56 11
70 2 13 7 42 10 65 3 22 8 47 10 55 2 8 7 35 10 60 3 25 8 52 10 60 2 8 6 33
10 55 3 22 10 65 15 95 5 30 11 71 14 90 3 19 8 46 11 60 2 13 7 42 10 65 6
40 11 70 20 125 3 17 7 44 10 60 3 17 7 44 10 60 3 17 8 45 11 63 3 17 7 46
10 62 2 17 6 41 9 55 3 14 7 41 10 60 3 19 7 46 10 60 2 13 7 40 10 60 3 20 8
47 10 60 3 14 7 41 10 60 3 19 7 46 10 60 2 13 7 42 10 65 3 22 10 65 15 95 9
54 14 82 25 150 3 19 7 46 10 60 4 24 10 55 21 125 2 17 7 41 9 55 3 14 7 41
10 60 2 19 7 46 9 60 3 13 8 40 11 60 3 20 7 45 9 55 2 11 7 40 11 65 3 25 9
59 11 75 3 17 7 44 10 60 2 17 6 41 9 55 3 14 7 41 10 60 3 19 7 46 10 60 3
14 7 41 10 60 3 19 7 46 10 60 3 14 7 43 10 65 3 22 8 51 10 65 3 14 7 36 10
50 6 41 16 101 21 123 2 12 6 39 9 62 9 57 12 79 29 180 9 50 18 107 22 129 3
21 7 46 9 55 1 9 6 36 10 61 9 63 14 92 19 115 2 11 7 40 11 65 4 25 9 52 10
60 3 15 13 83 20 130 2 14 7 41 10 60 4 19 8 49 11 67 4 34 4 34 -86 47 -19 3
-46 8 -60 11 -13 2 -40 7 -60 10 -20 3 -45 7 -55 9 -11 2 -40 7 -65 11 -25 4
-52 8 -60 10 -8 1 -37 6 -63 9 -27 4 -59 9 -70 12 -12 2 -38 6 -57 9 -19 3
-46 7 -60 10 -13 2 -40 7 -60 10 -20 3 -47 8 -60 10 -14 3 -41 7 -60 10 -19 3
-45 7 -56 9 -25 5 -78 14 -131 21 -21 3 -49 8 -63 11 -55 10 -67 12 -110 18
-25 3 -55 8 -66 10 -12 2 -39 7 -60 11 -49 7 -84 13 -154 25 -30 5 -71 12 -90
15 -19 3 -46 7 -60 10 -34 6 -80 14 -121 19 -19 3 -45 8 -59 10 -13 3 -42 8
-65 12 -41 6 -49 7 -120 18 -22 3 -51 8 -65 11 -67 13 -88 17 -185 30 -16 3
-41 7 -55 10 -14 3 -43 8 -65 11 -22 3 -49 7 -60 9 -11 2 -38 7 -59 10 -40 5
-71 11 -116 20 -13 2 -42 7 -65 10 -39 6 -68 11 -122 20 -16 2 -44 7 -63 10
-19 3 -60 10 -90 15 -129 22 -118 23 -124 -7z m1844 -8647 c25 -3 56 -8 69
-11 12 -2 42 -7 65 -9 22 -3 52 -8 66 -10 38 -7 214 -31 300 -41 25 -3 56 -7
70 -10 14 -3 45 -7 70 -10 25 -3 56 -7 69 -10 14 -2 45 -7 70 -10 49 -5 83
-10 144 -19 20 -3 53 -8 72 -11 19 -3 51 -7 70 -10 19 -3 52 -8 73 -11 20 -3
53 -7 72 -10 19 -2 60 -9 90 -14 49 -8 101 -16 165 -25 11 -2 34 -6 50 -8 17
-3 50 -9 75 -12 25 -4 54 -9 65 -11 10 -2 37 -6 60 -9 22 -3 47 -8 55 -10 15
-4 42 -9 114 -20 21 -4 48 -9 60 -11 11 -2 46 -8 76 -14 30 -6 66 -12 80 -15
14 -3 40 -8 59 -11 18 -3 41 -7 50 -9 9 -2 72 -15 141 -29 69 -13 136 -27 150
-30 28 -6 39 -8 131 -30 37 -8 78 -17 90 -20 41 -8 62 -13 124 -29 33 -9 71
-18 85 -21 25 -5 56 -12 88 -21 9 -2 53 -14 97 -26 44 -11 85 -22 90 -23 6 -1
21 -5 35 -9 14 -4 41 -12 60 -17 19 -5 89 -26 155 -46 66 -19 127 -37 135 -39
8 -2 27 -8 43 -14 15 -6 38 -13 50 -15 12 -2 52 -16 90 -30 37 -14 68 -26 70
-25 3 1 28 -7 82 -27 28 -10 52 -19 55 -19 3 0 19 -6 35 -12 167 -65 325 -127
345 -136 14 -6 27 -11 30 -12 3 -1 25 -11 50 -22 25 -11 68 -30 95 -42 148
-67 427 -213 567 -299 57 -34 112 -68 123 -75 23 -14 251 -174 274 -193 296
-236 516 -468 680 -719 58 -89 186 -330 218 -410 25 -65 75 -211 79 -235 3
-14 12 -48 20 -76 8 -28 16 -60 18 -70 7 -39 18 -100 23 -124 21 -106 28 -222
28 -445 0 -201 -5 -301 -20 -387 -2 -13 -6 -43 -9 -68 -3 -25 -8 -56 -11 -70
-3 -14 -9 -47 -15 -75 -10 -54 -11 -56 -35 -160 -57 -242 -188 -549 -323 -755
-50 -76 -128 -187 -142 -200 -3 -3 -20 -23 -39 -45 -200 -237 -482 -455 -796
-613 -99 -50 -217 -102 -231 -102 -8 0 -14 -5 -14 -12 0 -6 -3 -9 -6 -5 -4 3
-19 0 -33 -8 -15 -7 -76 -30 -136 -50 -61 -20 -117 -39 -125 -42 -8 -3 -23 -8
-32 -9 -9 -2 -36 -10 -60 -19 -24 -8 -52 -15 -64 -15 -11 0 -24 -3 -28 -7 -3
-4 -12 -8 -19 -9 -11 -3 -29 -7 -74 -18 -50 -13 -216 -48 -268 -57 -54 -9 -73
-12 -140 -23 -11 -2 -42 -7 -70 -11 -27 -3 -61 -8 -75 -11 -14 -2 -45 -6 -70
-9 -25 -3 -59 -8 -77 -10 -18 -3 -67 -8 -110 -11 -43 -4 -91 -8 -108 -9 -304
-27 -1142 -27 -1425 0 -19 2 -78 6 -130 10 -52 3 -113 8 -135 10 -22 3 -71 7
-110 10 -74 6 -124 11 -190 19 -22 3 -69 8 -105 12 -36 3 -76 8 -90 9 -14 2
-50 6 -81 9 -31 4 -67 9 -80 11 -13 3 -49 7 -79 10 -30 3 -66 8 -80 10 -14 3
-45 7 -70 10 -25 3 -56 8 -70 10 -14 2 -45 7 -70 10 -25 3 -56 7 -70 10 -14 3
-41 7 -60 9 -31 4 -79 11 -129 21 -9 1 -41 6 -71 10 -30 4 -64 9 -75 11 -43 8
-192 33 -235 39 -24 4 -47 8 -50 10 -3 1 -25 6 -50 9 -25 3 -54 8 -65 10 -11
2 -36 6 -55 10 -19 3 -45 8 -56 10 -12 2 -37 7 -55 10 -19 3 -44 8 -55 10 -24
5 -89 16 -119 21 -41 6 -90 16 -105 20 -8 2 -33 7 -55 10 -23 3 -52 8 -65 10
-14 3 -41 8 -60 11 -19 3 -42 7 -50 9 -15 4 -63 13 -110 20 -14 2 -36 7 -50
10 -14 3 -41 7 -60 10 -75 11 -75 11 -76 41 0 16 3 45 7 64 4 19 10 55 13 80
3 25 8 55 10 66 5 26 16 88 21 129 3 17 7 41 10 55 2 13 7 40 10 60 3 20 7 47
10 60 3 13 7 42 10 65 7 45 13 79 20 115 5 23 15 84 20 125 2 11 6 34 8 50 3
17 8 48 12 70 7 46 12 78 25 155 5 30 12 73 15 95 4 22 8 47 10 55 2 8 7 35
10 60 7 48 12 81 20 120 2 13 7 42 10 65 3 22 8 47 10 55 2 8 6 35 9 60 3 25
8 55 10 66 2 12 7 39 11 60 3 22 8 54 11 73 3 18 7 43 10 54 2 12 6 37 9 57 3
20 7 47 10 60 3 13 7 40 10 60 3 20 7 47 10 60 3 13 7 40 10 60 3 20 8 47 10
60 3 14 8 45 10 70 3 25 8 52 10 60 2 8 7 33 10 55 3 23 7 52 10 65 3 13 7 40
10 60 3 20 7 47 10 60 3 13 7 40 10 60 3 20 7 47 10 60 3 13 7 42 10 65 7 45
13 79 20 115 6 31 16 98 20 130 2 14 6 41 10 60 3 19 8 49 11 65 2 17 6 41 9
55 3 14 7 41 10 60 3 19 7 46 10 60 2 13 8 42 11 65 4 22 8 49 10 60 2 11 6
38 9 59 3 22 8 53 11 70 4 17 8 40 9 51 2 11 6 36 10 55 3 19 8 46 10 60 9 60
18 116 21 135 2 10 6 35 9 55 3 20 7 45 9 55 2 11 7 40 11 65 4 25 9 54 11 65
4 24 15 93 19 120 1 11 5 34 8 50 3 17 9 48 12 70 3 22 7 47 10 55 2 8 6 35 9
60 3 25 8 56 11 70 2 13 7 40 10 60 3 20 7 47 10 60 3 13 7 40 10 60 3 20 7
47 10 60 3 13 7 42 10 65 3 22 8 51 10 65 3 14 8 36 10 50 3 14 7 41 10 60 3
19 7 46 10 60 2 13 7 42 10 65 6 38 10 67 20 128 3 15 7 39 10 55 2 15 7 42
10 60 3 17 7 47 10 65 3 17 7 43 10 57 3 14 7 39 9 55 3 17 7 44 10 60 3 17 8
46 11 65 3 19 10 60 15 90 15 90 21 133 26 170 8 68 18 95 32 86 4 -2 27 -7
52 -10z m-1524 -9120 c16 -3 47 -7 69 -11 23 -3 51 -7 64 -10 13 -2 42 -7 65
-9 22 -3 52 -8 66 -11 14 -2 45 -7 70 -9 25 -3 56 -8 70 -10 14 -3 48 -8 75
-12 28 -3 59 -7 70 -9 11 -2 44 -6 74 -10 30 -4 62 -8 71 -10 9 -2 41 -6 70
-10 29 -4 61 -8 70 -10 9 -2 41 -6 70 -10 29 -4 62 -8 73 -11 11 -2 41 -6 66
-9 25 -3 57 -7 70 -10 14 -2 47 -7 75 -10 28 -3 58 -8 66 -10 8 -2 35 -6 60
-9 25 -3 54 -7 65 -10 11 -2 45 -7 75 -11 30 -4 64 -9 75 -11 11 -2 38 -6 60
-9 22 -3 51 -7 65 -10 24 -5 85 -14 125 -20 28 -4 97 -15 120 -19 11 -2 40 -7
65 -11 25 -4 54 -9 65 -11 10 -2 35 -6 55 -9 20 -3 47 -7 60 -10 13 -3 42 -7
64 -11 22 -3 43 -7 46 -9 3 -2 30 -6 60 -10 30 -4 57 -8 60 -10 3 -2 24 -6 46
-9 22 -4 51 -9 64 -11 14 -3 39 -8 55 -10 17 -3 66 -13 110 -22 44 -9 89 -17
100 -19 30 -5 78 -14 95 -19 8 -2 29 -7 45 -10 41 -7 253 -51 295 -61 18 -4
196 -43 225 -49 11 -3 49 -12 84 -21 36 -9 73 -18 84 -20 10 -2 27 -6 37 -9
10 -3 28 -8 39 -10 12 -3 30 -7 41 -10 11 -3 29 -7 40 -10 11 -3 29 -7 40 -10
11 -3 29 -7 41 -10 11 -2 29 -7 39 -10 10 -3 27 -8 37 -10 10 -2 33 -8 51 -14
17 -5 32 -7 32 -4 0 3 7 -1 17 -8 9 -8 17 -12 17 -10 1 2 21 -2 46 -9 25 -7
56 -14 69 -17 13 -2 34 -9 45 -15 12 -6 23 -11 26 -10 6 2 84 -20 200 -56 47
-14 88 -27 93 -28 4 -1 8 -2 10 -4 1 -1 9 -3 17 -5 8 -1 38 -10 65 -20 28 -9
57 -18 65 -21 8 -2 80 -26 160 -54 80 -28 156 -55 170 -60 39 -12 143 -51 165
-60 11 -5 90 -37 175 -71 85 -34 178 -72 205 -84 28 -13 73 -33 100 -45 117
-52 409 -199 519 -262 66 -37 121 -68 123 -68 2 0 16 -8 31 -19 15 -10 72 -47
127 -81 499 -313 899 -700 1162 -1125 94 -152 249 -495 268 -595 2 -13 9 -38
15 -56 6 -18 13 -45 16 -61 3 -15 7 -36 10 -45 6 -20 14 -57 18 -83 2 -11 8
-47 14 -80 34 -189 44 -413 29 -650 -4 -60 -9 -121 -12 -134 -2 -13 -7 -47
-10 -75 -2 -28 -7 -62 -10 -76 -2 -13 -7 -42 -11 -65 -3 -22 -10 -60 -16 -85
-5 -25 -12 -58 -15 -75 -15 -92 -103 -361 -162 -495 -8 -19 -15 -37 -16 -40
-2 -10 -80 -165 -88 -175 -4 -5 -30 -48 -58 -95 -266 -444 -723 -827 -1269
-1062 -25 -11 -61 -26 -80 -35 -47 -20 -66 -28 -130 -51 -30 -11 -75 -28 -100
-37 -55 -21 -97 -35 -129 -41 -14 -3 -29 -8 -35 -12 -6 -3 -15 -7 -21 -8 -5
-1 -36 -9 -67 -19 -32 -9 -59 -16 -60 -15 -2 1 -15 -3 -31 -9 -15 -6 -38 -13
-50 -15 -43 -9 -63 -14 -107 -26 -25 -7 -54 -14 -65 -15 -11 -2 -31 -6 -45 -9
-14 -4 -41 -9 -60 -12 -19 -3 -43 -7 -52 -10 -21 -6 -52 -12 -98 -19 -20 -3
-47 -8 -60 -11 -14 -2 -40 -7 -59 -10 -19 -2 -47 -6 -62 -9 -15 -3 -47 -7 -70
-10 -24 -3 -55 -8 -69 -10 -14 -2 -47 -6 -75 -9 -27 -3 -72 -9 -100 -12 -86
-9 -118 -12 -200 -19 -44 -3 -100 -8 -125 -10 -220 -20 -1046 -27 -1355 -11
-88 5 -185 10 -215 11 -50 3 -148 9 -285 20 -27 2 -84 6 -125 10 -41 4 -97 8
-125 11 -27 2 -68 6 -90 8 -22 2 -76 8 -120 11 -44 4 -88 9 -98 11 -10 2 -48
6 -85 9 -37 4 -78 8 -92 10 -25 4 -92 12 -165 20 -22 2 -56 7 -75 9 -19 3 -55
8 -80 11 -25 3 -62 7 -82 10 -21 3 -57 8 -80 11 -24 3 -54 7 -68 9 -14 2 -49
7 -79 10 -30 4 -63 9 -75 11 -12 2 -39 6 -61 9 -22 3 -53 7 -70 10 -49 8 -109
17 -130 20 -11 2 -40 6 -65 10 -25 4 -56 8 -70 10 -14 2 -41 6 -60 10 -19 3
-48 8 -65 11 -37 7 -68 11 -120 19 -22 3 -80 12 -130 21 -49 8 -102 17 -117
20 -16 2 -43 7 -60 10 -18 3 -42 8 -53 9 -11 2 -36 6 -55 10 -19 3 -48 8 -65
11 -16 3 -37 7 -45 9 -8 2 -33 7 -55 10 -23 3 -50 7 -62 9 -11 3 -36 7 -54 10
-19 3 -45 8 -59 11 -13 2 -40 7 -60 10 -20 3 -47 7 -60 10 -14 3 -38 7 -55 10
-39 6 -79 14 -110 20 -14 3 -35 7 -47 9 -13 2 -50 9 -83 15 -33 6 -76 13 -95
16 -19 3 -46 8 -60 10 -80 16 -176 32 -207 34 -6 1 -10 9 -8 20 2 10 6 36 9
57 4 22 11 64 16 94 5 30 11 71 14 90 3 19 7 44 10 55 4 20 13 82 22 140 2 17
6 41 9 55 7 38 16 92 21 125 2 17 6 41 9 55 3 14 7 41 10 60 3 19 7 46 10 60
3 14 8 43 11 65 3 22 7 49 9 60 9 51 17 99 21 118 2 12 6 39 9 62 4 22 9 54
12 70 3 17 7 39 8 50 2 11 6 34 9 50 2 17 8 50 11 75 3 25 8 52 10 60 2 8 7
33 10 55 3 23 7 52 10 65 3 13 7 42 10 65 3 22 8 47 10 55 2 8 7 33 10 55 3
23 7 52 10 65 3 14 7 45 10 69 3 24 7 46 9 50 2 3 7 26 10 51 3 25 8 54 10 65
6 31 16 97 20 130 3 17 7 44 10 60 12 70 18 102 22 130 2 17 6 41 9 55 2 13 7
42 10 65 7 47 13 80 20 115 3 14 7 41 10 60 3 19 7 46 10 60 2 13 7 40 10 60
3 20 7 47 10 60 3 13 7 40 10 60 3 20 8 47 10 60 3 14 7 43 10 65 3 22 7 51
10 65 2 14 7 39 9 55 3 17 7 44 10 60 3 17 7 44 10 60 3 17 8 46 11 65 3 19 7
46 10 60 3 14 7 39 9 55 3 17 7 44 10 60 3 17 8 46 11 65 3 19 7 46 10 60 3
14 7 41 10 60 3 19 7 46 10 60 3 14 7 41 10 60 3 19 7 46 10 60 2 14 7 43 10
65 3 23 8 52 10 65 3 14 7 41 10 60 3 19 7 46 10 60 2 13 7 40 10 60 3 20 8
47 10 60 3 14 8 43 11 65 8 57 11 75 19 115 7 38 11 63 20 124 3 22 8 53 11
70 4 17 8 40 9 51 2 11 6 34 9 50 2 17 7 48 11 70 3 23 7 52 10 65 3 13 7 42
10 65 3 22 8 47 10 55 2 8 7 35 10 60 3 25 8 52 10 60 2 8 7 33 10 55 3 23 7
50 9 62 3 11 7 38 10 59 4 22 11 64 16 94 16 93 26 156 35 215 3 23 7 52 10
65 3 13 7 40 10 60 3 20 7 47 10 60 3 13 7 40 10 60 3 20 7 47 10 60 3 13 8
42 11 65 4 22 8 49 10 60 5 30 12 75 19 120 3 22 8 51 11 65 2 14 7 41 9 60 3
19 7 46 10 60 11 52 15 76 21 120 3 25 8 54 10 65 2 10 6 35 9 55 3 20 7 45 9
57 3 12 8 42 11 67 4 25 10 44 14 41 4 -2 21 -6 37 -9z"/>
</g>
</svg>
